<svg width="209" height="220" viewBox="0 0 209 220" fill="none" xmlns="http://www.w3.org/2000/svg">
<g clip-path="url(#clip0_730_46826)">
<path d="M198.856 0H204.876C206.472 1.92935 207.469 3.36324 207.714 5.96607C208.695 16.331 207.992 27.3352 207.988 37.7654L207.968 98.2859L207.999 163.04C208.016 174.726 208.676 186.774 207.756 198.402C207.289 204.279 204.949 210.278 200.461 214.144C197.34 216.831 193.108 218.332 189.149 219.047C181.318 220.463 154.438 220.093 145.95 219.277C140.83 218.783 136.107 216.673 132.787 212.533C123.659 201.15 125.828 162.388 127.25 147.619C129.81 121.039 136.669 95.8839 147.115 71.4825C149.317 66.3383 162.324 45.7448 162.267 42.8776C165.082 40.8205 167.338 36.3586 169.292 33.4082C177.741 20.6544 185.728 8.16845 198.856 0Z" fill="url(#paint0_linear_730_46826)"/>
<path d="M0 0H173.995H199.847C186.515 8.17721 178.404 20.6765 169.823 33.4441C167.838 36.3976 165.547 40.8643 162.689 42.9236C154.732 48.3503 145.404 52.0507 137.034 56.8537C112.771 70.7763 80.449 94.1405 74.719 123.626C67.9553 158.432 98.479 164.353 85.9957 200.333C83.7563 206.787 80.9345 212.367 75.1892 216.284C73.2327 217.616 71.2131 218.614 68.8766 219.018C61.0701 220.37 20.9455 220.366 12.9646 218.757C8.79316 217.917 5.27018 214.899 2.96253 211.359C1.80346 209.581 2.45975 207.517 1.67939 205.539V169.61L0 0ZM0 0L1.67939 169.61C1.62128 163.74 2.26122 151.777 3.35447 144.841C7.36234 119.414 15.4652 94.6779 29.1003 72.8472C53.0251 34.5421 94.5721 13.5654 137.397 5.1041C149.426 2.7274 162.879 2.5335 173.995 0H0Z" fill="url(#paint1_linear_730_46826)"/>
</g>
<defs>
<linearGradient id="paint0_linear_730_46826" x1="167.099" y1="-2.30681e-06" x2="167.099" y2="220" gradientUnits="userSpaceOnUse">
<stop stop-color="#072C91"/>
<stop offset="1" stop-color="#0C64FF"/>
</linearGradient>
<linearGradient id="paint1_linear_730_46826" x1="99.8518" y1="227.163" x2="99.8518" y2="0" gradientUnits="userSpaceOnUse">
<stop stop-color="#072C91"/>
<stop offset="1" stop-color="#0C64FF"/>
</linearGradient>
<clipPath id="clip0_730_46826">
<rect width="209" height="220" fill="white"/>
</clipPath>
</defs>
</svg>
